# xmcd CD database file
# Copyright (C) 1993-2000  Ti Kan
#
# Track frame offsets:
#	150
#	15750
#	33825
#	53175
#	68588
#	86325
#	100500
#	113625
#	131063
#	145913
#	158475
#	167025
#	179550
#	191960
#
# Disc length: 2725 seconds
#
# Revision: 2
# Processed by: cddbd v1.4PL0 Copyright (c) Steve Scherf et al.
# Submitted via: xmcd 2.6 PL0
#
DISCID=aa0aa30e
DTITLE=Various Artist - Jazzin' Baby Blues
DYEAR=1900
DGENRE=
TTITLE0=Poor Papa - Clarence Jones
TTITLE1=Look What A Fool I've Been - James P. Johnson
TTITLE2=Jazzin' Baby Blues - Fat Waller
TTITLE3=Mama's Got The Blues - Mike Montgomery
TTITLE4=Mama's Gone, Goodby - Clarence Jones
TTITLE5=Baby Won't You Please Come Home - Edythe Baker
TTITLE6=Play 'Em For Mama And Sing'Em For Me - James P. Johnson
TTITLE7=He's My Man - Edythe Baker
TTITLE8=When You're Good You're Lonesome - Mandy Randolph
TTITLE9=Cryin' Blues - Edythe Baker
TTITLE10=Blooie Blooie - Vee Lawnhurst
TTITLE11=Changes - Mandy Randolph
TTITLE12=Yearning (Just For You) - Mandy Randolph
TTITLE13=I'm Gonna Jazz My Way Right Straight Thru Paradise - Mandy Randolph
EXTD=
EXTT0=
EXTT1=
EXTT2=
EXTT3=
EXTT4=
EXTT5=
EXTT6=
EXTT7=
EXTT8=
EXTT9=
EXTT10=
EXTT11=
EXTT12=
EXTT13=
PLAYORDER=
